<mxfile host="app.diagrams.net" modified="2024-03-03T22:55:02.875Z" agent="Mozilla/5.0 (Windows NT 10.0; Win64; x64) AppleWebKit/537.36 (KHTML, like Gecko) Chrome/122.0.0.0 Safari/537.36" etag="Tk73OyJiRpBBEQbSADD8" version="24.0.1" type="device">
  <diagram name="Page-1" id="Jz0w3ECbOamkEnfMnykF">
    <mxGraphModel dx="2261" dy="790" grid="1" gridSize="10" guides="1" tooltips="1" connect="1" arrows="1" fold="1" page="1" pageScale="1" pageWidth="827" pageHeight="1169" math="0" shadow="0">
      <root>
        <mxCell id="0" />
        <mxCell id="1" parent="0" />
        <mxCell id="qmir-2y2--pesyIaGpG6-3" value="Skins" style="swimlane;fontStyle=0;childLayout=stackLayout;horizontal=1;startSize=30;horizontalStack=0;resizeParent=1;resizeParentMax=0;resizeLast=0;collapsible=1;marginBottom=0;whiteSpace=wrap;html=1;strokeColor=#00FF44;" parent="1" vertex="1">
          <mxGeometry x="130" y="160" width="150" height="270" as="geometry" />
        </mxCell>
        <mxCell id="qmir-2y2--pesyIaGpG6-4" value="PK&lt;span style=&quot;white-space: pre;&quot;&gt;&#x9;&lt;/span&gt;SkinID" style="text;strokeColor=#00FF44;fillColor=none;align=left;verticalAlign=middle;spacingLeft=4;spacingRight=4;overflow=hidden;points=[[0,0.5],[1,0.5]];portConstraint=eastwest;rotatable=0;whiteSpace=wrap;html=1;dashed=1;" parent="qmir-2y2--pesyIaGpG6-3" vertex="1">
          <mxGeometry y="30" width="150" height="30" as="geometry" />
        </mxCell>
        <mxCell id="qmir-2y2--pesyIaGpG6-5" value="&lt;span style=&quot;white-space: pre;&quot;&gt;&#x9;&lt;/span&gt;Skin_Name" style="text;strokeColor=#00FF44;fillColor=none;align=left;verticalAlign=middle;spacingLeft=4;spacingRight=4;overflow=hidden;points=[[0,0.5],[1,0.5]];portConstraint=eastwest;rotatable=0;whiteSpace=wrap;html=1;dashed=1;" parent="qmir-2y2--pesyIaGpG6-3" vertex="1">
          <mxGeometry y="60" width="150" height="30" as="geometry" />
        </mxCell>
        <mxCell id="n3sZ2i7hdFqpL9pC-hjW-3" value="FK&lt;span style=&quot;white-space: pre;&quot;&gt;&#x9;&lt;/span&gt;WeaponID" style="text;strokeColor=#00FF44;fillColor=none;align=left;verticalAlign=middle;spacingLeft=4;spacingRight=4;overflow=hidden;points=[[0,0.5],[1,0.5]];portConstraint=eastwest;rotatable=0;whiteSpace=wrap;html=1;" vertex="1" parent="qmir-2y2--pesyIaGpG6-3">
          <mxGeometry y="90" width="150" height="30" as="geometry" />
        </mxCell>
        <mxCell id="n3sZ2i7hdFqpL9pC-hjW-4" value="FK&lt;span style=&quot;white-space: pre;&quot;&gt;&#x9;&lt;/span&gt;RarityID" style="text;strokeColor=#00FF44;fillColor=none;align=left;verticalAlign=middle;spacingLeft=4;spacingRight=4;overflow=hidden;points=[[0,0.5],[1,0.5]];portConstraint=eastwest;rotatable=0;whiteSpace=wrap;html=1;dashed=1;" vertex="1" parent="qmir-2y2--pesyIaGpG6-3">
          <mxGeometry y="120" width="150" height="30" as="geometry" />
        </mxCell>
        <mxCell id="n3sZ2i7hdFqpL9pC-hjW-5" value="FK&lt;span style=&quot;white-space: pre;&quot;&gt;&#x9;&lt;/span&gt;CollectionID" style="text;strokeColor=#00FF44;fillColor=none;align=left;verticalAlign=middle;spacingLeft=4;spacingRight=4;overflow=hidden;points=[[0,0.5],[1,0.5]];portConstraint=eastwest;rotatable=0;whiteSpace=wrap;html=1;" vertex="1" parent="qmir-2y2--pesyIaGpG6-3">
          <mxGeometry y="150" width="150" height="30" as="geometry" />
        </mxCell>
        <mxCell id="n3sZ2i7hdFqpL9pC-hjW-6" value="&lt;span style=&quot;white-space: pre;&quot;&gt;&#x9;&lt;/span&gt;Min_Float" style="text;strokeColor=#00FF44;fillColor=none;align=left;verticalAlign=middle;spacingLeft=4;spacingRight=4;overflow=hidden;points=[[0,0.5],[1,0.5]];portConstraint=eastwest;rotatable=0;whiteSpace=wrap;html=1;dashed=1;" vertex="1" parent="qmir-2y2--pesyIaGpG6-3">
          <mxGeometry y="180" width="150" height="30" as="geometry" />
        </mxCell>
        <mxCell id="n3sZ2i7hdFqpL9pC-hjW-7" value="&lt;span style=&quot;white-space: pre;&quot;&gt;&#x9;&lt;/span&gt;Max_Float" style="text;strokeColor=#00FF44;fillColor=none;align=left;verticalAlign=middle;spacingLeft=4;spacingRight=4;overflow=hidden;points=[[0,0.5],[1,0.5]];portConstraint=eastwest;rotatable=0;whiteSpace=wrap;html=1;" vertex="1" parent="qmir-2y2--pesyIaGpG6-3">
          <mxGeometry y="210" width="150" height="30" as="geometry" />
        </mxCell>
        <mxCell id="n3sZ2i7hdFqpL9pC-hjW-8" value="&lt;span style=&quot;white-space: pre;&quot;&gt;&#x9;&lt;/span&gt;Is_Stattrak" style="text;strokeColor=#00FF44;fillColor=none;align=left;verticalAlign=middle;spacingLeft=4;spacingRight=4;overflow=hidden;points=[[0,0.5],[1,0.5]];portConstraint=eastwest;rotatable=0;whiteSpace=wrap;html=1;dashed=1;" vertex="1" parent="qmir-2y2--pesyIaGpG6-3">
          <mxGeometry y="240" width="150" height="30" as="geometry" />
        </mxCell>
        <mxCell id="n3sZ2i7hdFqpL9pC-hjW-9" value="" style="endArrow=classic;html=1;rounded=0;exitX=1;exitY=0.5;exitDx=0;exitDy=0;" edge="1" parent="1" source="n3sZ2i7hdFqpL9pC-hjW-3">
          <mxGeometry width="50" height="50" relative="1" as="geometry">
            <mxPoint x="290" y="270" as="sourcePoint" />
            <mxPoint x="390" y="250" as="targetPoint" />
            <Array as="points">
              <mxPoint x="330" y="265" />
              <mxPoint x="330" y="250" />
            </Array>
          </mxGeometry>
        </mxCell>
        <mxCell id="n3sZ2i7hdFqpL9pC-hjW-10" value="" style="endArrow=classic;html=1;rounded=0;exitX=1;exitY=0.5;exitDx=0;exitDy=0;" edge="1" parent="1" source="qmir-2y2--pesyIaGpG6-5">
          <mxGeometry width="50" height="50" relative="1" as="geometry">
            <mxPoint x="390" y="430" as="sourcePoint" />
            <mxPoint x="390" y="250" as="targetPoint" />
            <Array as="points">
              <mxPoint x="330" y="235" />
              <mxPoint x="330" y="250" />
            </Array>
          </mxGeometry>
        </mxCell>
        <mxCell id="n3sZ2i7hdFqpL9pC-hjW-13" value="Skin_Steam_Pricing_Summary" style="swimlane;fontStyle=0;childLayout=stackLayout;horizontal=1;startSize=30;horizontalStack=0;resizeParent=1;resizeParentMax=0;resizeLast=0;collapsible=1;marginBottom=0;whiteSpace=wrap;html=1;" vertex="1" parent="1">
          <mxGeometry x="390" y="200" width="230" height="240" as="geometry" />
        </mxCell>
        <mxCell id="n3sZ2i7hdFqpL9pC-hjW-32" value="PK&lt;span style=&quot;white-space: pre;&quot;&gt;&#x9;&lt;/span&gt;SummaryID&lt;span style=&quot;color: rgba(0, 0, 0, 0); font-family: monospace; font-size: 0px; text-wrap: nowrap;&quot;&gt;%3CmxGraphModel%3E%3Croot%3E%3CmxCell%20id%3D%220%22%2F%3E%3CmxCell%20id%3D%221%22%20parent%3D%220%22%2F%3E%3CmxCell%20id%3D%222%22%20value%3D%22Min_Float%22%20style%3D%22text%3BstrokeColor%3Dnone%3BfillColor%3Dnone%3Balign%3Dleft%3BverticalAlign%3Dmiddle%3BspacingLeft%3D4%3BspacingRight%3D4%3Boverflow%3Dhidden%3Bpoints%3D%5B%5B0%2C0.5%5D%2C%5B1%2C0.5%5D%5D%3BportConstraint%3Deastwest%3Brotatable%3D0%3BwhiteSpace%3Dwrap%3Bhtml%3D1%3B%22%20vertex%3D%221%22%20parent%3D%221%22%3E%3CmxGeometry%20x%3D%22340%22%20y%3D%22430%22%20width%3D%22150%22%20height%3D%2230%22%20as%3D%22geometry%22%2F%3E%3C%2FmxCell%3E%3C%2Froot%3E%3C%2FmxGraphModel%3E&lt;/span&gt;" style="text;strokeColor=none;fillColor=none;align=left;verticalAlign=middle;spacingLeft=4;spacingRight=4;overflow=hidden;points=[[0,0.5],[1,0.5]];portConstraint=eastwest;rotatable=0;whiteSpace=wrap;html=1;" vertex="1" parent="n3sZ2i7hdFqpL9pC-hjW-13">
          <mxGeometry y="30" width="230" height="30" as="geometry" />
        </mxCell>
        <mxCell id="n3sZ2i7hdFqpL9pC-hjW-15" value="PK&lt;span style=&quot;white-space: pre;&quot;&gt;&#x9;&lt;/span&gt;Skin_Name" style="text;strokeColor=none;fillColor=none;align=left;verticalAlign=middle;spacingLeft=4;spacingRight=4;overflow=hidden;points=[[0,0.5],[1,0.5]];portConstraint=eastwest;rotatable=0;whiteSpace=wrap;html=1;" vertex="1" parent="n3sZ2i7hdFqpL9pC-hjW-13">
          <mxGeometry y="60" width="230" height="30" as="geometry" />
        </mxCell>
        <mxCell id="n3sZ2i7hdFqpL9pC-hjW-16" value="PK&lt;span style=&quot;white-space: pre;&quot;&gt;&#x9;&lt;/span&gt;WeaponID&lt;span style=&quot;color: rgba(0, 0, 0, 0); font-family: monospace; font-size: 0px; text-wrap: nowrap;&quot;&gt;%3CmxGraphModel%3E%3Croot%3E%3CmxCell%20id%3D%220%22%2F%3E%3CmxCell%20id%3D%221%22%20parent%3D%220%22%2F%3E%3CmxCell%20id%3D%222%22%20value%3D%22Min_Float%22%20style%3D%22text%3BstrokeColor%3Dnone%3BfillColor%3Dnone%3Balign%3Dleft%3BverticalAlign%3Dmiddle%3BspacingLeft%3D4%3BspacingRight%3D4%3Boverflow%3Dhidden%3Bpoints%3D%5B%5B0%2C0.5%5D%2C%5B1%2C0.5%5D%5D%3BportConstraint%3Deastwest%3Brotatable%3D0%3BwhiteSpace%3Dwrap%3Bhtml%3D1%3B%22%20vertex%3D%221%22%20parent%3D%221%22%3E%3CmxGeometry%20x%3D%22340%22%20y%3D%22430%22%20width%3D%22150%22%20height%3D%2230%22%20as%3D%22geometry%22%2F%3E%3C%2FmxCell%3E%3C%2Froot%3E%3C%2FmxGraphModel%3E&lt;/span&gt;" style="text;strokeColor=none;fillColor=none;align=left;verticalAlign=middle;spacingLeft=4;spacingRight=4;overflow=hidden;points=[[0,0.5],[1,0.5]];portConstraint=eastwest;rotatable=0;whiteSpace=wrap;html=1;" vertex="1" parent="n3sZ2i7hdFqpL9pC-hjW-13">
          <mxGeometry y="90" width="230" height="30" as="geometry" />
        </mxCell>
        <mxCell id="n3sZ2i7hdFqpL9pC-hjW-19" value="PK Wear_Value &lt;i&gt;(FN, MW, FT, WW, BS)&lt;/i&gt;" style="text;strokeColor=none;fillColor=none;align=left;verticalAlign=middle;spacingLeft=4;spacingRight=4;overflow=hidden;points=[[0,0.5],[1,0.5]];portConstraint=eastwest;rotatable=0;whiteSpace=wrap;html=1;" vertex="1" parent="n3sZ2i7hdFqpL9pC-hjW-13">
          <mxGeometry y="120" width="230" height="30" as="geometry" />
        </mxCell>
        <mxCell id="n3sZ2i7hdFqpL9pC-hjW-20" value="&lt;span style=&quot;white-space: pre;&quot;&gt;&#x9;&lt;/span&gt;Seven_Day_Price" style="text;strokeColor=none;fillColor=none;align=left;verticalAlign=middle;spacingLeft=4;spacingRight=4;overflow=hidden;points=[[0,0.5],[1,0.5]];portConstraint=eastwest;rotatable=0;whiteSpace=wrap;html=1;" vertex="1" parent="n3sZ2i7hdFqpL9pC-hjW-13">
          <mxGeometry y="150" width="230" height="30" as="geometry" />
        </mxCell>
        <mxCell id="n3sZ2i7hdFqpL9pC-hjW-18" value="&lt;span style=&quot;white-space: pre;&quot;&gt;&#x9;&lt;/span&gt;Seven_Day_Volitility" style="text;strokeColor=none;fillColor=none;align=left;verticalAlign=middle;spacingLeft=4;spacingRight=4;overflow=hidden;points=[[0,0.5],[1,0.5]];portConstraint=eastwest;rotatable=0;whiteSpace=wrap;html=1;" vertex="1" parent="n3sZ2i7hdFqpL9pC-hjW-13">
          <mxGeometry y="180" width="230" height="30" as="geometry" />
        </mxCell>
        <mxCell id="n3sZ2i7hdFqpL9pC-hjW-17" value="&lt;span style=&quot;white-space: pre;&quot;&gt;&#x9;&lt;/span&gt;ETC..." style="text;strokeColor=none;fillColor=none;align=left;verticalAlign=middle;spacingLeft=4;spacingRight=4;overflow=hidden;points=[[0,0.5],[1,0.5]];portConstraint=eastwest;rotatable=0;whiteSpace=wrap;html=1;" vertex="1" parent="n3sZ2i7hdFqpL9pC-hjW-13">
          <mxGeometry y="210" width="230" height="30" as="geometry" />
        </mxCell>
        <mxCell id="n3sZ2i7hdFqpL9pC-hjW-22" value="" style="endArrow=classic;html=1;rounded=0;exitX=0.53;exitY=1.033;exitDx=0;exitDy=0;exitPerimeter=0;entryX=0.5;entryY=0;entryDx=0;entryDy=0;" edge="1" parent="1" source="n3sZ2i7hdFqpL9pC-hjW-17">
          <mxGeometry width="50" height="50" relative="1" as="geometry">
            <mxPoint x="430" y="610" as="sourcePoint" />
            <mxPoint x="220" y="520" as="targetPoint" />
            <Array as="points">
              <mxPoint x="512" y="490" />
              <mxPoint x="220" y="490" />
            </Array>
          </mxGeometry>
        </mxCell>
        <mxCell id="n3sZ2i7hdFqpL9pC-hjW-23" value="Steam Pricing Data. Not Including Floats" style="text;html=1;align=center;verticalAlign=middle;whiteSpace=wrap;rounded=0;fontStyle=1;fontColor=#FF0000;fontSize=20;" vertex="1" parent="1">
          <mxGeometry x="136" y="120" width="440" height="30" as="geometry" />
        </mxCell>
        <mxCell id="n3sZ2i7hdFqpL9pC-hjW-24" value="SummaryID_WeaponID_Skin_Name_Wear_Value" style="swimlane;fontStyle=0;childLayout=stackLayout;horizontal=1;startSize=30;horizontalStack=0;resizeParent=1;resizeParentMax=0;resizeLast=0;collapsible=1;marginBottom=0;whiteSpace=wrap;html=1;" vertex="1" parent="1">
          <mxGeometry x="80" y="520" width="300" height="150" as="geometry" />
        </mxCell>
        <mxCell id="n3sZ2i7hdFqpL9pC-hjW-36" value="PK&lt;span style=&quot;white-space: pre;&quot;&gt;&#x9;&lt;/span&gt;priceDataID &lt;i&gt;(Irrelevent for searching)&lt;/i&gt;" style="text;strokeColor=none;fillColor=none;align=left;verticalAlign=middle;spacingLeft=4;spacingRight=4;overflow=hidden;points=[[0,0.5],[1,0.5]];portConstraint=eastwest;rotatable=0;whiteSpace=wrap;html=1;" vertex="1" parent="n3sZ2i7hdFqpL9pC-hjW-24">
          <mxGeometry y="30" width="300" height="30" as="geometry" />
        </mxCell>
        <mxCell id="n3sZ2i7hdFqpL9pC-hjW-27" value="&lt;span style=&quot;white-space: pre;&quot;&gt;&#x9;&lt;/span&gt;Pricing Type &lt;i&gt;(7-day, Monthly, etc)&lt;/i&gt;" style="text;strokeColor=none;fillColor=none;align=left;verticalAlign=middle;spacingLeft=4;spacingRight=4;overflow=hidden;points=[[0,0.5],[1,0.5]];portConstraint=eastwest;rotatable=0;whiteSpace=wrap;html=1;" vertex="1" parent="n3sZ2i7hdFqpL9pC-hjW-24">
          <mxGeometry y="60" width="300" height="30" as="geometry" />
        </mxCell>
        <mxCell id="n3sZ2i7hdFqpL9pC-hjW-37" value="&lt;span style=&quot;white-space: pre;&quot;&gt;&#x9;&lt;/span&gt;Order &lt;i&gt;(1, 2, 3, etc - extrapolated from API dates)&lt;/i&gt;" style="text;strokeColor=none;fillColor=none;align=left;verticalAlign=middle;spacingLeft=4;spacingRight=4;overflow=hidden;points=[[0,0.5],[1,0.5]];portConstraint=eastwest;rotatable=0;whiteSpace=wrap;html=1;" vertex="1" parent="n3sZ2i7hdFqpL9pC-hjW-24">
          <mxGeometry y="90" width="300" height="30" as="geometry" />
        </mxCell>
        <mxCell id="n3sZ2i7hdFqpL9pC-hjW-38" value="&lt;span style=&quot;white-space: pre;&quot;&gt;&#x9;&lt;/span&gt;Price" style="text;strokeColor=none;fillColor=none;align=left;verticalAlign=middle;spacingLeft=4;spacingRight=4;overflow=hidden;points=[[0,0.5],[1,0.5]];portConstraint=eastwest;rotatable=0;whiteSpace=wrap;html=1;" vertex="1" parent="n3sZ2i7hdFqpL9pC-hjW-24">
          <mxGeometry y="120" width="300" height="30" as="geometry" />
        </mxCell>
        <mxCell id="n3sZ2i7hdFqpL9pC-hjW-29" value="" style="shape=flexArrow;endArrow=classic;html=1;rounded=0;entryX=1.013;entryY=0.1;entryDx=0;entryDy=0;entryPerimeter=0;exitX=0.053;exitY=0.463;exitDx=0;exitDy=0;exitPerimeter=0;" edge="1" parent="1" source="n3sZ2i7hdFqpL9pC-hjW-30" target="n3sZ2i7hdFqpL9pC-hjW-24">
          <mxGeometry width="50" height="50" relative="1" as="geometry">
            <mxPoint x="410" y="532" as="sourcePoint" />
            <mxPoint x="520" y="550" as="targetPoint" />
          </mxGeometry>
        </mxCell>
        <mxCell id="n3sZ2i7hdFqpL9pC-hjW-30" value="eg: 56_AK-47_Red_Laminate_Field_tested" style="ellipse;shape=cloud;whiteSpace=wrap;html=1;" vertex="1" parent="1">
          <mxGeometry x="414" y="490" width="356" height="80" as="geometry" />
        </mxCell>
        <mxCell id="n3sZ2i7hdFqpL9pC-hjW-31" value="Entire Table for each skin and wear value" style="text;html=1;align=center;verticalAlign=middle;whiteSpace=wrap;rounded=0;fontSize=13;fontStyle=1" vertex="1" parent="1">
          <mxGeometry x="220" y="460" width="150" height="30" as="geometry" />
        </mxCell>
        <mxCell id="n3sZ2i7hdFqpL9pC-hjW-33" value="" style="shape=flexArrow;endArrow=classic;html=1;rounded=0;" edge="1" parent="1">
          <mxGeometry width="50" height="50" relative="1" as="geometry">
            <mxPoint x="30" y="565" as="sourcePoint" />
            <mxPoint x="70" y="540" as="targetPoint" />
          </mxGeometry>
        </mxCell>
        <mxCell id="n3sZ2i7hdFqpL9pC-hjW-35" value="SummaryID&lt;div&gt;Links Table&lt;/div&gt;" style="ellipse;shape=cloud;whiteSpace=wrap;html=1;" vertex="1" parent="1">
          <mxGeometry x="-100" y="520" width="120" height="80" as="geometry" />
        </mxCell>
        <mxCell id="n3sZ2i7hdFqpL9pC-hjW-39" value="" style="endArrow=classic;html=1;rounded=0;exitX=0.45;exitY=0.967;exitDx=0;exitDy=0;exitPerimeter=0;entryX=0.5;entryY=0;entryDx=0;entryDy=0;" edge="1" parent="1" source="n3sZ2i7hdFqpL9pC-hjW-38" target="n3sZ2i7hdFqpL9pC-hjW-40">
          <mxGeometry width="50" height="50" relative="1" as="geometry">
            <mxPoint x="210" y="710" as="sourcePoint" />
            <mxPoint x="215" y="790" as="targetPoint" />
          </mxGeometry>
        </mxCell>
        <mxCell id="n3sZ2i7hdFqpL9pC-hjW-40" value="&lt;span style=&quot;font-weight: 400;&quot;&gt;56_AK-47_Red_Laminate_Field_tested&lt;/span&gt;" style="swimlane;whiteSpace=wrap;html=1;" vertex="1" parent="1">
          <mxGeometry x="40" y="750" width="350" height="190" as="geometry" />
        </mxCell>
        <mxCell id="n3sZ2i7hdFqpL9pC-hjW-44" value="PriceDataID&lt;span style=&quot;white-space: pre;&quot;&gt;&#x9;&lt;/span&gt;Pricing_Type&lt;span style=&quot;white-space: pre;&quot;&gt;&#x9;&lt;/span&gt;&lt;span style=&quot;white-space: pre;&quot;&gt;&#x9;&lt;/span&gt;&lt;span style=&quot;white-space: pre;&quot;&gt;&#x9;&lt;/span&gt;Order&lt;span style=&quot;white-space: pre;&quot;&gt;&#x9;&lt;span style=&quot;white-space: pre;&quot;&gt;&#x9;&lt;/span&gt;&lt;/span&gt;Price" style="whiteSpace=wrap;html=1;align=left;" vertex="1" parent="n3sZ2i7hdFqpL9pC-hjW-40">
          <mxGeometry y="30" width="350" height="20" as="geometry" />
        </mxCell>
        <mxCell id="n3sZ2i7hdFqpL9pC-hjW-45" value="1&lt;span style=&quot;white-space: pre;&quot;&gt;&#x9;&lt;/span&gt;&lt;span style=&quot;white-space: pre;&quot;&gt;&#x9;&lt;/span&gt;&lt;span style=&quot;white-space: pre;&quot;&gt;&#x9;&lt;/span&gt;7-Day&lt;span style=&quot;white-space: pre;&quot;&gt;&#x9;&lt;/span&gt;&lt;span style=&quot;white-space: pre;&quot;&gt;&#x9;&lt;/span&gt;&lt;span style=&quot;white-space: pre;&quot;&gt;&#x9;&lt;/span&gt;&lt;span style=&quot;white-space: pre;&quot;&gt;&#x9;&lt;/span&gt;1&lt;span style=&quot;white-space: pre;&quot;&gt;&#x9;&lt;span style=&quot;white-space: pre;&quot;&gt;&#x9;&lt;span style=&quot;white-space: pre;&quot;&gt;&#x9;&lt;/span&gt;&lt;/span&gt;&lt;/span&gt;23.08" style="whiteSpace=wrap;html=1;align=left;" vertex="1" parent="n3sZ2i7hdFqpL9pC-hjW-40">
          <mxGeometry y="50" width="350" height="20" as="geometry" />
        </mxCell>
        <mxCell id="n3sZ2i7hdFqpL9pC-hjW-46" value="2&lt;span style=&quot;white-space: pre;&quot;&gt;&#x9;&lt;/span&gt;&lt;span style=&quot;white-space: pre;&quot;&gt;&#x9;&lt;/span&gt;&lt;span style=&quot;white-space: pre;&quot;&gt;&#x9;&lt;/span&gt;7-Day&lt;span style=&quot;white-space: pre;&quot;&gt;&#x9;&lt;/span&gt;&lt;span style=&quot;white-space: pre;&quot;&gt;&#x9;&lt;/span&gt;&lt;span style=&quot;white-space: pre;&quot;&gt;&#x9;&lt;/span&gt;&lt;span style=&quot;white-space: pre;&quot;&gt;&#x9;&lt;/span&gt;2&lt;span style=&quot;white-space: pre;&quot;&gt;&#x9;&lt;/span&gt;&lt;span style=&quot;white-space: pre;&quot;&gt;&#x9;&lt;/span&gt;&lt;span style=&quot;white-space: pre;&quot;&gt;&#x9;&lt;/span&gt;24.01" style="whiteSpace=wrap;html=1;align=left;" vertex="1" parent="n3sZ2i7hdFqpL9pC-hjW-40">
          <mxGeometry y="70" width="350" height="20" as="geometry" />
        </mxCell>
        <mxCell id="n3sZ2i7hdFqpL9pC-hjW-47" value="3&lt;span style=&quot;white-space: pre;&quot;&gt;&#x9;&lt;/span&gt;&lt;span style=&quot;white-space: pre;&quot;&gt;&#x9;&lt;/span&gt;&lt;span style=&quot;white-space: pre;&quot;&gt;&#x9;&lt;/span&gt;7-Day&lt;span style=&quot;white-space: pre;&quot;&gt;&#x9;&lt;/span&gt;&lt;span style=&quot;white-space: pre;&quot;&gt;&#x9;&lt;/span&gt;&lt;span style=&quot;white-space: pre;&quot;&gt;&#x9;&lt;/span&gt;&lt;span style=&quot;white-space: pre;&quot;&gt;&#x9;&lt;/span&gt;3&lt;span style=&quot;white-space: pre;&quot;&gt;&#x9;&lt;/span&gt;&lt;span style=&quot;white-space: pre;&quot;&gt;&#x9;&lt;/span&gt;&lt;span style=&quot;white-space: pre;&quot;&gt;&#x9;&lt;/span&gt;23.19" style="whiteSpace=wrap;html=1;align=left;" vertex="1" parent="n3sZ2i7hdFqpL9pC-hjW-40">
          <mxGeometry y="90" width="350" height="20" as="geometry" />
        </mxCell>
        <mxCell id="n3sZ2i7hdFqpL9pC-hjW-48" value="7-Day......" style="whiteSpace=wrap;html=1;align=left;" vertex="1" parent="n3sZ2i7hdFqpL9pC-hjW-40">
          <mxGeometry y="110" width="350" height="20" as="geometry" />
        </mxCell>
        <mxCell id="n3sZ2i7hdFqpL9pC-hjW-49" value="832&lt;span style=&quot;white-space: pre;&quot;&gt;&#x9;&lt;/span&gt;&lt;span style=&quot;white-space: pre;&quot;&gt;&#x9;&lt;/span&gt;&lt;span style=&quot;white-space: pre;&quot;&gt;&#x9;&lt;/span&gt;Monthly&lt;span style=&quot;white-space: pre;&quot;&gt;&#x9;&lt;/span&gt;&lt;span style=&quot;white-space: pre;&quot;&gt;&#x9;&lt;/span&gt;&lt;span style=&quot;white-space: pre;&quot;&gt;&#x9;&lt;/span&gt;&lt;span style=&quot;white-space: pre;&quot;&gt;&#x9;&lt;/span&gt;56&lt;span style=&quot;white-space: pre;&quot;&gt;&#x9;&lt;/span&gt;&lt;span style=&quot;white-space: pre;&quot;&gt;&#x9;&lt;/span&gt;&lt;span style=&quot;white-space: pre;&quot;&gt;&#x9;&lt;/span&gt;23.56" style="whiteSpace=wrap;html=1;align=left;" vertex="1" parent="n3sZ2i7hdFqpL9pC-hjW-40">
          <mxGeometry y="130" width="350" height="20" as="geometry" />
        </mxCell>
        <mxCell id="n3sZ2i7hdFqpL9pC-hjW-50" value="833&lt;span style=&quot;white-space: pre;&quot;&gt;&#x9;&lt;/span&gt;&lt;span style=&quot;white-space: pre;&quot;&gt;&#x9;&lt;/span&gt;&lt;span style=&quot;white-space: pre;&quot;&gt;&#x9;&lt;/span&gt;Monthly&lt;span style=&quot;white-space: pre;&quot;&gt;&#x9;&lt;/span&gt;&lt;span style=&quot;white-space: pre;&quot;&gt;&#x9;&lt;/span&gt;&lt;span style=&quot;white-space: pre;&quot;&gt;&#x9;&lt;/span&gt;&lt;span style=&quot;white-space: pre;&quot;&gt;&#x9;&lt;/span&gt;57&lt;span style=&quot;white-space: pre;&quot;&gt;&#x9;&lt;/span&gt;&lt;span style=&quot;white-space: pre;&quot;&gt;&#x9;&lt;/span&gt;&lt;span style=&quot;white-space: pre;&quot;&gt;&#x9;&lt;/span&gt;23.75" style="whiteSpace=wrap;html=1;align=left;" vertex="1" parent="n3sZ2i7hdFqpL9pC-hjW-40">
          <mxGeometry y="150" width="350" height="20" as="geometry" />
        </mxCell>
        <mxCell id="n3sZ2i7hdFqpL9pC-hjW-51" value="834&lt;span style=&quot;white-space: pre;&quot;&gt;&#x9;&lt;/span&gt;&lt;span style=&quot;white-space: pre;&quot;&gt;&#x9;&lt;/span&gt;&lt;span style=&quot;white-space: pre;&quot;&gt;&#x9;&lt;/span&gt;Monthly&lt;span style=&quot;white-space: pre;&quot;&gt;&#x9;&lt;/span&gt;&lt;span style=&quot;white-space: pre;&quot;&gt;&#x9;&lt;/span&gt;&lt;span style=&quot;white-space: pre;&quot;&gt;&#x9;&lt;/span&gt;&lt;span style=&quot;white-space: pre;&quot;&gt;&#x9;&lt;/span&gt;58&lt;span style=&quot;white-space: pre;&quot;&gt;&#x9;&lt;/span&gt;&lt;span style=&quot;white-space: pre;&quot;&gt;&#x9;&lt;/span&gt;&lt;span style=&quot;white-space: pre;&quot;&gt;&#x9;&lt;/span&gt;23.29" style="whiteSpace=wrap;html=1;align=left;" vertex="1" parent="n3sZ2i7hdFqpL9pC-hjW-40">
          <mxGeometry y="170" width="350" height="20" as="geometry" />
        </mxCell>
        <mxCell id="n3sZ2i7hdFqpL9pC-hjW-41" value="Example" style="text;html=1;align=center;verticalAlign=middle;whiteSpace=wrap;rounded=0;fontStyle=1" vertex="1" parent="1">
          <mxGeometry x="220" y="700" width="60" height="30" as="geometry" />
        </mxCell>
        <mxCell id="n3sZ2i7hdFqpL9pC-hjW-52" value="" style="shape=flexArrow;endArrow=classic;html=1;rounded=0;entryX=0.242;entryY=0.625;entryDx=0;entryDy=0;entryPerimeter=0;" edge="1" parent="1" target="n3sZ2i7hdFqpL9pC-hjW-30">
          <mxGeometry width="50" height="50" relative="1" as="geometry">
            <mxPoint x="520" y="620" as="sourcePoint" />
            <mxPoint x="440" y="590" as="targetPoint" />
          </mxGeometry>
        </mxCell>
        <mxCell id="n3sZ2i7hdFqpL9pC-hjW-53" value="Where 56 is&lt;div&gt;arbitrarily&lt;/div&gt;&lt;div&gt;chosen as ID&lt;/div&gt;" style="ellipse;shape=cloud;whiteSpace=wrap;html=1;" vertex="1" parent="1">
          <mxGeometry x="490" y="610" width="130" height="80" as="geometry" />
        </mxCell>
        <mxCell id="n3sZ2i7hdFqpL9pC-hjW-54" value="" style="shape=flexArrow;endArrow=classic;html=1;rounded=0;entryX=1;entryY=0.75;entryDx=0;entryDy=0;exitX=0.07;exitY=0.4;exitDx=0;exitDy=0;exitPerimeter=0;" edge="1" parent="1" source="n3sZ2i7hdFqpL9pC-hjW-55" target="n3sZ2i7hdFqpL9pC-hjW-40">
          <mxGeometry width="50" height="50" relative="1" as="geometry">
            <mxPoint x="410" y="933" as="sourcePoint" />
            <mxPoint x="440" y="890" as="targetPoint" />
          </mxGeometry>
        </mxCell>
        <mxCell id="n3sZ2i7hdFqpL9pC-hjW-55" value="Random Starting&amp;nbsp;&lt;div&gt;point&lt;span style=&quot;background-color: initial;&quot;&gt;&amp;nbsp;in Monthly&lt;/span&gt;&lt;/div&gt;&lt;div&gt;&lt;span style=&quot;background-color: initial;&quot;&gt;&amp;nbsp;section&lt;/span&gt;&lt;/div&gt;" style="ellipse;shape=cloud;whiteSpace=wrap;html=1;" vertex="1" parent="1">
          <mxGeometry x="430" y="850" width="146" height="100" as="geometry" />
        </mxCell>
        <mxCell id="n3sZ2i7hdFqpL9pC-hjW-57" value="" style="shape=flexArrow;endArrow=classic;html=1;rounded=0;entryX=-0.027;entryY=0.052;entryDx=0;entryDy=0;entryPerimeter=0;strokeColor=#00FF44;" edge="1" parent="1" target="qmir-2y2--pesyIaGpG6-3">
          <mxGeometry width="50" height="50" relative="1" as="geometry">
            <mxPoint x="90" y="180" as="sourcePoint" />
            <mxPoint x="120" y="360" as="targetPoint" />
          </mxGeometry>
        </mxCell>
        <mxCell id="n3sZ2i7hdFqpL9pC-hjW-58" value="Static Database&lt;div&gt;(Implemented)&lt;/div&gt;" style="ellipse;shape=cloud;whiteSpace=wrap;html=1;strokeColor=#00FF44;" vertex="1" parent="1">
          <mxGeometry x="-30" y="150" width="120" height="80" as="geometry" />
        </mxCell>
        <mxCell id="n3sZ2i7hdFqpL9pC-hjW-59" value="A Summary table for each possible skin is created. This contains computed data from each skin and wear value-specific table. This means we will have a few thousand tables in the database. A separate static version of the database can be separately stored in the case that compute time is affected when pricing data is added.&amp;nbsp;" style="text;html=1;align=center;verticalAlign=middle;whiteSpace=wrap;rounded=0;fontStyle=1" vertex="1" parent="1">
          <mxGeometry x="-80" y="1000" width="620" height="80" as="geometry" />
        </mxCell>
        <mxCell id="n3sZ2i7hdFqpL9pC-hjW-60" value="SummaryID may&lt;div&gt;be all thats required&lt;/div&gt;&lt;div&gt;for the name of the&amp;nbsp;&lt;span style=&quot;background-color: initial;&quot;&gt;table.&amp;nbsp;&lt;/span&gt;&lt;/div&gt;&lt;div&gt;subject to script complexity&lt;/div&gt;" style="ellipse;shape=cloud;whiteSpace=wrap;html=1;" vertex="1" parent="1">
          <mxGeometry x="-200" y="650" width="220" height="140" as="geometry" />
        </mxCell>
        <mxCell id="n3sZ2i7hdFqpL9pC-hjW-61" value="" style="shape=flexArrow;endArrow=classic;html=1;rounded=0;" edge="1" parent="1" target="n3sZ2i7hdFqpL9pC-hjW-35">
          <mxGeometry width="50" height="50" relative="1" as="geometry">
            <mxPoint x="-70" y="670" as="sourcePoint" />
            <mxPoint x="-30" y="640" as="targetPoint" />
          </mxGeometry>
        </mxCell>
      </root>
    </mxGraphModel>
  </diagram>
</mxfile>
